<svg xmlns="http://www.w3.org/2000/svg" xmlns:xlink="http://www.w3.org/1999/xlink" width="500" zoomAndPan="magnify" viewBox="0 0 375 374.999991" height="500" preserveAspectRatio="xMidYMid meet" version="1.0"><defs><filter x="0%" y="0%" width="100%" height="100%" id="463abf2a20"><feColorMatrix values="0 0 0 0 1 0 0 0 0 1 0 0 0 0 1 0 0 0 1 0" color-interpolation-filters="sRGB"/></filter><mask id="d2be777a7d"><g filter="url(#463abf2a20)"><rect x="-37.5" width="450" fill="#000000" y="-37.499999" height="449.999989" fill-opacity="0.7098"/></g></mask><clipPath id="6516300f15"><path d="M 143 0.515625 L 189 0.515625 L 189 114 L 143 114 Z M 143 0.515625 " clip-rule="nonzero"/></clipPath><clipPath id="a0ccaf0cbc"><path d="M 0.558594 102 L 58 102 L 58 162.515625 L 0.558594 162.515625 Z M 0.558594 102 " clip-rule="nonzero"/></clipPath><clipPath id="a8a6fd871c"><rect x="0" width="368" y="0" height="163"/></clipPath></defs><g mask="url(#d2be777a7d)"><g transform="matrix(1, 0, 0, 1, 4, 96)"><g clip-path="url(#a8a6fd871c)"><g clip-path="url(#6516300f15)"><path fill="#f9b41e" d="M 143.480469 80.527344 C 145.148438 80.472656 146.242188 81.410156 147.179688 82.398438 C 152.855469 88.328125 158.945312 93.894531 163.894531 100.554688 C 164.257812 101.023438 164.621094 101.441406 164.988281 101.855469 C 166.027344 101.492188 166.183594 100.917969 165.820312 100.085938 C 162.746094 93.011719 162.539062 85.363281 161.757812 77.875 C 160.613281 66.375 159.726562 54.828125 158.894531 43.328125 C 158.320312 35.371094 158.007812 27.410156 157.59375 19.449219 C 157.382812 15.394531 157.226562 11.335938 157.226562 7.277344 C 157.226562 5.039062 157.539062 2.855469 157.75 0.515625 C 158.53125 0.617188 159.15625 0.515625 159.414062 0.773438 C 160.820312 2.074219 162.433594 2.960938 163.582031 4.675781 C 165.089844 6.914062 165.820312 9.410156 167.121094 11.648438 C 168.527344 14.039062 168.945312 16.796875 169.152344 19.554688 C 169.464844 23.875 169.464844 28.191406 169.933594 32.457031 C 171.652344 48.636719 170.558594 64.867188 171.289062 81.046875 C 171.445312 84.429688 171.652344 87.863281 171.808594 91.242188 C 171.859375 91.710938 172.015625 92.179688 172.277344 93.167969 C 176.183594 88.121094 179.878906 83.441406 183.472656 78.863281 C 186.386719 79.695312 186.597656 82.660156 188.574219 84.117188 C 188.054688 86.976562 186.335938 89.316406 185.085938 91.816406 C 183.472656 95.09375 181.804688 98.371094 179.984375 101.492188 C 177.953125 105.027344 175.765625 108.460938 173.527344 111.792969 C 172.277344 113.664062 171.289062 113.925781 169.203125 113.039062 C 167.953125 112.519531 166.601562 111.738281 165.714844 110.75 C 159.519531 104.039062 153.425781 97.226562 147.335938 90.410156 C 146.1875 89.109375 145.304688 87.550781 144.3125 86.144531 C 143.167969 84.375 143.742188 82.449219 143.480469 80.527344 Z M 143.480469 80.527344 " fill-opacity="1" fill-rule="nonzero"/></g><path fill="#f9b41e" d="M 233.042969 74.128906 C 234.816406 74.59375 236.066406 75.375 237.003906 76.730469 C 239.292969 80.109375 241.167969 83.699219 242.679688 87.496094 C 243.457031 89.472656 244.449219 91.398438 245.644531 93.894531 C 246.0625 92.542969 246.324219 91.816406 246.53125 91.035156 C 248.144531 83.386719 249.707031 75.738281 251.320312 68.09375 C 254.289062 54.097656 257.207031 40.105469 260.226562 26.160156 C 261.109375 22.207031 262.257812 18.304688 263.296875 14.351562 C 263.453125 13.730469 263.765625 13.15625 264.132812 12.21875 C 265.433594 13.105469 266.785156 13.675781 267.515625 14.664062 C 268.558594 16.070312 269.183594 17.839844 269.964844 19.449219 C 270.277344 20.023438 270.378906 20.75 270.796875 21.273438 C 272.773438 23.769531 273.035156 26.628906 272.460938 29.542969 C 271.265625 35.578125 270.171875 41.613281 268.660156 47.59375 C 266.164062 57.324219 263.296875 66.949219 260.644531 76.675781 C 259.183594 81.878906 257.882812 87.132812 256.476562 92.335938 C 256.371094 92.648438 256.425781 92.960938 256.320312 93.6875 C 259.027344 92.441406 261.265625 90.984375 263.609375 89.628906 C 265.695312 88.433594 267.777344 87.238281 269.910156 86.144531 C 271.316406 85.417969 271.734375 85.730469 272.722656 87.289062 C 273.242188 88.171875 273.972656 88.902344 274.597656 89.734375 C 275.640625 91.085938 275.640625 91.816406 274.441406 92.90625 C 273.140625 94.15625 271.785156 95.40625 270.328125 96.445312 C 265.796875 99.722656 262.101562 103.882812 258.300781 107.890625 C 256.789062 109.449219 255.175781 110.855469 253.5625 112.3125 C 252.832031 112.988281 252.101562 112.988281 251.0625 112.730469 C 246.738281 111.6875 244.707031 108.359375 243.457031 104.769531 C 240.75 96.914062 237.523438 89.265625 234.191406 81.671875 C 233.097656 79.328125 232.730469 76.988281 233.042969 74.128906 Z M 233.042969 74.128906 " fill-opacity="1" fill-rule="nonzero"/><g clip-path="url(#a0ccaf0cbc)"><path fill="#f9b41e" d="M 0.597656 102.738281 C 1.898438 101.492188 3.097656 102.21875 4.03125 102.949219 C 6.742188 104.976562 9.449219 107.109375 12 109.347656 C 16.425781 113.25 20.800781 117.203125 25.070312 121.261719 C 31.320312 127.242188 37.464844 133.277344 43.609375 139.363281 C 45.222656 140.976562 46.574219 142.851562 48.449219 145.035156 C 48.761719 138.273438 46.367188 132.183594 47.511719 125.316406 C 48.605469 126.460938 49.441406 127.085938 50.066406 127.917969 C 51.992188 130.46875 53.1875 133.382812 53.867188 136.503906 C 54.855469 141.027344 55.898438 145.605469 56.730469 150.183594 C 57.300781 153.410156 57.300781 156.636719 56.574219 159.863281 C 56.261719 161.316406 55.429688 161.996094 54.074219 162.253906 C 53.34375 162.359375 52.5625 162.515625 51.835938 162.460938 C 46.886719 162.152344 41.941406 161.785156 36.996094 161.527344 C 35.746094 161.472656 34.496094 161.421875 33.246094 161.421875 C 30.484375 161.472656 27.984375 160.640625 25.695312 159.238281 C 23.558594 157.882812 20.382812 153.203125 21.320312 149.871094 C 21.527344 149.195312 21.371094 148.46875 21.371094 147.375 C 22.519531 147.375 23.664062 147.21875 24.757812 147.375 C 30.484375 148.261719 36.265625 149.195312 41.992188 150.082031 C 42.878906 150.238281 43.710938 150.289062 45.222656 150.445312 C 44.285156 149.351562 43.816406 148.730469 43.191406 148.207031 C 35.691406 141.652344 28.195312 135.046875 20.59375 128.59375 C 17.414062 125.890625 14.03125 123.496094 10.644531 121.105469 C 7.054688 118.503906 4.34375 115.171875 2.367188 111.324219 C 1.429688 109.554688 0.230469 107.683594 1.324219 105.394531 C 1.535156 104.71875 0.855469 103.78125 0.597656 102.738281 Z M 0.597656 102.738281 " fill-opacity="1" fill-rule="nonzero"/></g><path fill="#f9b41e" d="M 111.40625 97.851562 C 110.832031 96.652344 110.15625 95.5625 109.425781 94.46875 C 108.957031 93.792969 108.332031 93.21875 107.449219 92.285156 C 106.769531 93.949219 106.199219 95.144531 105.78125 96.394531 C 104.949219 98.996094 104.269531 101.648438 103.4375 104.25 C 103.332031 104.664062 102.96875 104.976562 102.605469 105.445312 C 98.59375 96.914062 92.917969 86.976562 92.917969 86.976562 C 91.304688 83.128906 89.691406 79.328125 88.128906 75.480469 C 84.066406 65.648438 80.265625 55.710938 74.902344 46.449219 C 72.769531 42.808594 70.058594 39.792969 66.675781 37.347656 C 65.945312 36.828125 64.644531 36.515625 63.914062 36.828125 C 62.71875 37.347656 63.5 38.542969 63.757812 39.480469 C 63.914062 39.949219 64.070312 40.417969 64.175781 40.882812 C 64.226562 41.039062 64.125 41.195312 64.125 41.351562 C 63.757812 41.457031 63.394531 41.5625 63.082031 41.664062 C 63.550781 44.941406 64.019531 48.0625 65.582031 50.875 C 66.363281 52.226562 67.09375 53.628906 67.820312 55.035156 C 72.351562 63.929688 76.882812 72.828125 81.308594 81.722656 C 86.304688 91.660156 90.578125 101.960938 96.617188 111.636719 C 95.679688 111.324219 94.742188 111.0625 93.855469 110.648438 C 90.472656 109.191406 87.140625 107.734375 83.808594 106.277344 C 82.558594 105.707031 81.308594 104.976562 79.847656 105.550781 C 79.433594 111.167969 80.628906 113.664062 85.734375 115.796875 C 90.941406 118.035156 96.304688 119.75 101.5625 121.78125 C 104.167969 122.769531 106.042969 121.574219 107.550781 119.542969 C 108.90625 117.773438 109.425781 115.695312 109.738281 113.507812 C 110.414062 108.929688 111.039062 104.300781 111.664062 99.671875 C 111.820312 99.152344 111.664062 98.421875 111.40625 97.851562 Z M 111.40625 97.851562 " fill-opacity="1" fill-rule="nonzero"/><path fill="#f9b41e" d="M 366.085938 58.675781 C 365.046875 57.894531 364.371094 59.144531 363.691406 59.820312 C 363.328125 60.183594 363.015625 60.550781 362.652344 60.863281 C 362.546875 60.964844 362.339844 60.964844 362.234375 61.015625 C 361.972656 60.757812 361.714844 60.496094 361.453125 60.238281 C 358.796875 62.214844 356.296875 64.085938 354.578125 66.84375 C 353.746094 68.195312 352.863281 69.496094 351.976562 70.796875 C 346.300781 79.015625 340.675781 87.238281 334.949219 95.40625 C 328.597656 104.507812 321.566406 113.25 315.941406 123.132812 C 315.785156 122.195312 315.578125 121.207031 315.472656 120.273438 C 315.160156 116.628906 314.847656 112.988281 314.535156 109.347656 C 314.433594 107.941406 314.484375 106.539062 313.285156 105.496094 C 308.132812 107.839844 306.570312 110.074219 307.039062 115.539062 C 307.558594 121.15625 308.601562 126.722656 309.382812 132.289062 C 309.746094 134.996094 311.726562 136.140625 314.222656 136.503906 C 316.410156 136.816406 318.546875 136.296875 320.578125 135.566406 C 324.949219 133.953125 329.324219 132.339844 333.648438 130.625 C 334.21875 130.417969 334.792969 129.949219 335.15625 129.429688 C 335.9375 128.386719 336.5625 127.242188 337.1875 126.097656 C 337.550781 125.371094 337.761719 124.539062 338.175781 123.339844 C 336.40625 123.550781 335.054688 123.601562 333.804688 123.863281 C 331.09375 124.382812 328.441406 125.058594 325.730469 125.578125 C 325.261719 125.683594 324.691406 125.472656 324.015625 125.371094 C 324.222656 124.796875 324.328125 124.484375 324.484375 124.277344 C 325.160156 123.394531 326.253906 122.613281 326.410156 121.675781 L 346.507812 94.9375 C 352.289062 87.863281 358.121094 80.785156 362.910156 72.929688 C 365.097656 69.339844 366.453125 65.492188 366.972656 61.382812 C 367.078125 60.445312 366.710938 59.144531 366.085938 58.675781 Z M 366.085938 58.675781 " fill-opacity="1" fill-rule="nonzero"/></g></g></g></svg>