<svg xmlns="http://www.w3.org/2000/svg" xmlns:xlink="http://www.w3.org/1999/xlink" width="500" zoomAndPan="magnify" viewBox="0 0 375 374.999991" height="500" preserveAspectRatio="xMidYMid meet" version="1.0"><defs><filter x="0%" y="0%" width="100%" height="100%" id="39fb646cdd"><feColorMatrix values="0 0 0 0 1 0 0 0 0 1 0 0 0 0 1 0 0 0 1 0" color-interpolation-filters="sRGB"/></filter><mask id="b99c1ad084"><g filter="url(#39fb646cdd)"><rect x="-37.5" width="450" fill="#000000" y="-37.499999" height="449.999989" fill-opacity="0.1882"/></g></mask><clipPath id="feff6c916a"><path d="M 3 0.28125 L 147 0.28125 L 147 33 L 3 33 Z M 3 0.28125 " clip-rule="nonzero"/></clipPath><clipPath id="b1708965e6"><path d="M 0.359375 63 L 154 63 L 154 90 L 0.359375 90 Z M 0.359375 63 " clip-rule="nonzero"/></clipPath><clipPath id="0a9d04583e"><path d="M 1.335938 136.242188 L 154.527344 136.242188 L 154.527344 163 L 1.335938 163 Z M 1.335938 136.242188 " clip-rule="nonzero"/></clipPath><clipPath id="e1a7cc74fc"><path d="M 6.058594 214 L 152.8125 214 L 152.8125 239.277344 L 6.058594 239.277344 Z M 6.058594 214 " clip-rule="nonzero"/></clipPath><clipPath id="85bc4dfafc"><rect x="0" width="155" y="0" height="240"/></clipPath></defs><g mask="url(#b99c1ad084)"><g transform="matrix(1, 0, 0, 1, 111, 53)"><g clip-path="url(#85bc4dfafc)"><g clip-path="url(#feff6c916a)"><path fill="#f9b41e" d="M 130.898438 6.203125 C 133.699219 6.59375 145.488281 9.683594 143.050781 14.277344 C 141.980469 16.292969 139.023438 17.675781 137.140625 18.800781 C 134.585938 20.328125 131.808594 21.472656 129.015625 22.46875 C 119.429688 25.878906 109.039062 26.535156 98.984375 27.367188 C 77.785156 29.109375 56.574219 28.148438 35.382812 26.769531 C 27.089844 26.230469 18.058594 25.226562 11.015625 20.449219 C 9.734375 19.582031 7.398438 17.816406 7.726562 16.027344 C 7.976562 14.6875 9.824219 13.792969 10.871094 13.210938 C 14.039062 11.453125 17.820312 10.671875 21.316406 9.867188 C 32.910156 7.191406 44.875 6.441406 56.710938 5.640625 C 68.148438 4.863281 79.460938 3.894531 90.933594 4.019531 C 96.105469 4.074219 101.285156 4.007812 106.453125 4.21875 C 111.792969 4.429688 117.050781 5.410156 122.371094 5.695312 C 122.121094 5.09375 121.871094 4.492188 121.621094 3.890625 C 121.523438 3.964844 121.429688 4.039062 121.332031 4.109375 C 121.796875 4.570312 122.257812 5.035156 122.722656 5.496094 C 122.824219 5.378906 122.929688 5.257812 123.035156 5.144531 C 123.734375 4.367188 122.871094 3.363281 121.96875 3.761719 C 121.824219 3.828125 121.675781 3.894531 121.53125 3.957031 C 120.480469 4.425781 121.25 6 122.289062 5.746094 C 122.410156 5.71875 122.53125 5.6875 122.652344 5.660156 C 123.523438 5.449219 123.722656 4.144531 122.90625 3.722656 C 114.328125 -0.710938 102.996094 0.457031 93.652344 0.335938 C 82.179688 0.191406 70.929688 0.917969 59.496094 1.695312 C 48.199219 2.464844 36.902344 3.199219 25.738281 5.144531 C 19.253906 6.273438 10.800781 7.527344 5.765625 12.242188 C 0.585938 17.089844 7.195312 22.734375 11.355469 25.109375 C 18.203125 29.011719 26.648438 29.875 34.359375 30.480469 C 55.429688 32.128906 76.769531 32.878906 97.847656 31.144531 C 111.808594 29.992188 126.554688 29.082031 138.90625 21.816406 C 142.941406 19.441406 148.59375 15.683594 145.855469 10.425781 C 143.433594 5.78125 135.625 3.515625 130.898438 4.644531 C 130.164062 4.820312 130.085938 6.089844 130.898438 6.203125 " fill-opacity="1" fill-rule="nonzero"/></g><g clip-path="url(#b1708965e6)"><path fill="#f9b41e" d="M 136.84375 65.988281 C 114.898438 71.253906 92.628906 73.367188 70.078125 73.933594 C 59.878906 74.1875 49.277344 72.640625 39.132812 71.65625 C 33.714844 71.128906 28.324219 70.382812 22.960938 69.449219 C 18.222656 68.625 13.550781 67.265625 8.777344 66.691406 C 2.480469 65.933594 -1.394531 71.832031 1.949219 77.238281 C 4.980469 82.136719 12.28125 83.925781 17.492188 85.085938 C 26.246094 87.039062 35.4375 87.675781 44.351562 88.4375 C 55.851562 89.421875 67.398438 89.632812 78.933594 89.285156 C 88.957031 88.984375 98.953125 88.105469 108.894531 86.796875 C 118.261719 85.5625 127.863281 84.417969 137.113281 82.523438 C 141.988281 81.527344 153.738281 77.085938 153.15625 70.363281 C 152.664062 64.703125 146.007812 62.8125 141.171875 63.894531 C 139.433594 64.285156 139.921875 66.789062 141.574219 66.871094 C 144.761719 67.027344 150.996094 68.660156 147.398438 72.5625 C 143.910156 76.335938 138.398438 77.867188 133.535156 78.734375 C 122.878906 80.628906 111.984375 82.128906 101.226562 83.316406 C 78.648438 85.808594 55.882812 85.476562 33.332031 82.9375 C 25.925781 82.105469 18.367188 81.367188 11.359375 78.683594 C 9.113281 77.824219 5.414062 76.125 5.085938 73.382812 C 4.542969 68.8125 14.636719 72.359375 16.527344 72.753906 C 27.082031 74.972656 37.828125 76.125 48.574219 76.902344 C 58.816406 77.640625 68.65625 78.449219 78.933594 77.878906 C 98.4375 76.796875 119.847656 76.984375 137.65625 67.90625 C 138.75 67.347656 137.972656 65.71875 136.84375 65.988281 " fill-opacity="1" fill-rule="nonzero"/></g><g clip-path="url(#0a9d04583e)"><path fill="#f9b41e" d="M 120.546875 145.003906 C 115.15625 145.316406 109.835938 146.386719 104.449219 146.933594 C 99.160156 147.464844 93.835938 147.742188 88.519531 147.953125 C 77.273438 148.398438 66.003906 148.652344 54.75 148.253906 C 43.179688 147.847656 31.65625 146.480469 20.414062 143.675781 C 16.03125 142.582031 2.050781 136.328125 1.476562 145.476562 C 0.996094 153.113281 9.289062 156.238281 15.351562 157.707031 C 25.640625 160.203125 36.40625 161.367188 46.941406 162.203125 C 69.992188 164.027344 93.265625 162.507812 116.082031 159.015625 C 123.65625 157.855469 131.1875 156.375 138.613281 154.480469 C 144.546875 152.960938 151.109375 150.363281 153.902344 144.5 C 156.210938 139.65625 151.660156 137.003906 147.511719 136.472656 C 144.507812 136.089844 141.320312 137.015625 138.542969 138.019531 C 134.023438 139.660156 129.660156 141.734375 125.121094 143.316406 C 124.324219 143.59375 124.390625 144.96875 125.332031 144.871094 C 130.285156 144.363281 134.648438 142.421875 139.421875 141.199219 C 140.5625 140.910156 151.132812 138.414062 150.457031 142.21875 C 149.765625 146.078125 143.464844 148.398438 140.34375 149.445312 C 136.378906 150.773438 132.210938 151.445312 128.148438 152.417969 C 105.453125 157.835938 81.433594 159.617188 58.15625 158.980469 C 46.164062 158.652344 34.210938 157.429688 22.398438 155.351562 C 18.1875 154.609375 13.859375 153.890625 9.945312 152.101562 C 8.058594 151.242188 6.652344 149.984375 5.671875 148.175781 C 3.386719 143.949219 8.703125 144.203125 11.304688 144.917969 C 21.71875 147.769531 31.738281 150.195312 42.542969 151.195312 C 53.8125 152.238281 65.167969 152.136719 76.46875 151.789062 C 83.695312 151.566406 90.9375 151.304688 98.152344 150.78125 C 105.644531 150.242188 113.769531 149.519531 120.789062 146.796875 C 121.6875 146.449219 121.652344 144.941406 120.546875 145.003906 " fill-opacity="1" fill-rule="nonzero"/></g><g clip-path="url(#e1a7cc74fc)"><path fill="#f9b41e" d="M 43.367188 223.394531 C 39.171875 223.542969 35.042969 222.148438 31.144531 220.738281 C 27.613281 219.464844 24.003906 218.441406 20.472656 217.1875 C 15.425781 215.394531 8.851562 213.777344 6.46875 220.03125 C 4.640625 224.832031 9.304688 228.96875 13.035156 230.851562 C 18.257812 233.488281 24.359375 234.414062 30.09375 235.203125 C 47.371094 237.585938 64.734375 239.132812 82.1875 239.277344 C 93.136719 239.367188 104.078125 238.460938 114.894531 236.792969 C 120.21875 235.972656 125.4375 234.75 130.683594 233.566406 C 134.976562 232.601562 139.265625 231.792969 143.371094 230.160156 C 149.148438 227.855469 157.339844 219.921875 149.273438 214.988281 C 145.738281 212.828125 141 214.867188 137.636719 216.292969 C 132.023438 218.675781 126.25 220.386719 120.304688 221.738281 C 107.921875 224.546875 95.136719 225.683594 82.460938 225.976562 C 76.078125 226.125 69.683594 225.941406 63.3125 225.585938 C 57.847656 225.277344 51.9375 225.601562 46.59375 224.339844 C 45.269531 224.03125 44.710938 226.054688 46.03125 226.367188 C 66.035156 231.082031 88.171875 230.371094 108.398438 227.585938 C 118.621094 226.179688 129.046875 224.039062 138.527344 219.871094 C 140.796875 218.871094 143.046875 217.894531 145.558594 217.796875 C 150.578125 217.605469 148.367188 222.140625 146.375 223.984375 C 143.0625 227.050781 137.664062 227.917969 133.414062 228.835938 C 122.34375 231.222656 111.445312 233.539062 100.128906 234.535156 C 89.476562 235.476562 78.707031 235.546875 68.023438 235.222656 C 52.785156 234.761719 36.800781 233.882812 21.875 230.480469 C 18.191406 229.644531 14.191406 228.449219 11.308594 225.90625 C 10.03125 224.777344 9.429688 223.359375 9.464844 221.671875 C 9.546875 218.019531 13.679688 218.59375 16.054688 219.15625 C 24.816406 221.230469 34.4375 227.257812 43.628906 225.320312 C 44.71875 225.089844 44.46875 223.355469 43.367188 223.394531 " fill-opacity="1" fill-rule="nonzero"/></g><path fill="#f9b41e" d="M 7.761719 154.292969 C 9.636719 155.289062 11.628906 156.164062 13.628906 156.882812 C 13.28125 156.425781 12.933594 155.972656 12.585938 155.515625 C 12.960938 160.335938 12.445312 165.234375 12.695312 170.089844 C 12.976562 175.539062 13.222656 180.925781 13.117188 186.386719 C 12.917969 196.71875 13.332031 207.039062 13.367188 217.371094 C 13.375 219.476562 16.648438 219.480469 16.644531 217.371094 C 16.636719 207.039062 16.21875 196.71875 16.476562 186.386719 C 16.601562 181.371094 16.519531 176.410156 16.070312 171.410156 C 15.601562 166.136719 16.125 160.742188 15.421875 155.515625 C 15.339844 154.886719 15.050781 154.328125 14.382812 154.152344 C 12.246094 153.59375 10.105469 152.828125 7.898438 153.253906 C 7.410156 153.347656 7.34375 154.070312 7.761719 154.292969 " fill-opacity="1" fill-rule="nonzero"/><path fill="#f9b41e" d="M 144.339844 150.738281 C 143.105469 155.871094 143.605469 161.574219 143.582031 166.824219 C 143.554688 172.613281 143.796875 178.410156 143.945312 184.195312 C 144.089844 189.953125 144.359375 195.683594 144.671875 201.429688 C 144.902344 205.738281 146.164062 210.957031 145.097656 215.171875 C 144.648438 216.960938 147.410156 217.71875 147.859375 215.933594 C 148.828125 212.105469 147.78125 208.171875 147.671875 204.304688 C 147.492188 198.074219 147.09375 191.867188 147.003906 185.632812 C 146.917969 179.847656 146.847656 174.0625 146.78125 168.277344 C 146.714844 162.601562 147.078125 156.273438 145.738281 150.738281 C 145.570312 150.046875 144.507812 150.046875 144.339844 150.738281 " fill-opacity="1" fill-rule="nonzero"/><path fill="#f9b41e" d="M 5.675781 78.855469 C 5.8125 78.984375 5.953125 79.113281 6.089844 79.246094 C 6.257812 78.84375 6.421875 78.441406 6.589844 78.042969 C 6.457031 78.050781 6.324219 78.058594 6.191406 78.070312 C 5.214844 78.140625 5.203125 79.542969 6.191406 79.589844 C 8.972656 79.726562 11.117188 82.222656 13.882812 82.679688 C 13.613281 82.207031 13.34375 81.730469 13.074219 81.257812 C 13.054688 81.394531 13.035156 81.527344 13.015625 81.664062 C 12.867188 82.679688 13.746094 83.480469 14.734375 82.984375 C 14.839844 82.933594 14.941406 82.882812 15.046875 82.832031 C 14.46875 82.597656 13.890625 82.363281 13.3125 82.125 C 14.195312 86.769531 13.269531 91.605469 13.347656 96.300781 C 13.433594 101.644531 13.472656 106.992188 13.539062 112.335938 C 13.675781 122.949219 13.320312 133.59375 13.660156 144.199219 C 13.710938 145.796875 16.078125 145.792969 16.144531 144.199219 C 16.605469 133.121094 16.296875 121.972656 16.316406 110.886719 C 16.324219 105.535156 16.328125 100.191406 16.179688 94.84375 C 16.054688 90.339844 16.6875 85.933594 15.589844 81.5 C 15.40625 80.75 14.503906 80.425781 13.855469 80.796875 C 13.753906 80.851562 13.652344 80.910156 13.554688 80.96875 C 14.140625 81.304688 14.726562 81.640625 15.316406 81.976562 C 15.328125 81.839844 15.339844 81.703125 15.351562 81.5625 C 15.410156 80.886719 14.777344 80.46875 14.191406 80.40625 C 11.289062 80.085938 9.207031 77.761719 6.191406 78.070312 C 6.257812 78.566406 6.328125 79.066406 6.394531 79.5625 C 6.523438 79.519531 6.652344 79.472656 6.777344 79.425781 C 7.398438 79.207031 7.507812 78.238281 6.777344 78.066406 C 6.589844 78.023438 6.402344 77.976562 6.210938 77.933594 C 5.691406 77.8125 5.257812 78.460938 5.675781 78.855469 " fill-opacity="1" fill-rule="nonzero"/><path fill="#f9b41e" d="M 5.867188 19.671875 C 7.984375 22.929688 11.105469 25.371094 12.390625 29.152344 C 13.621094 32.773438 12.757812 37.535156 12.847656 41.308594 C 13.074219 50.996094 11.859375 60.707031 12.328125 70.386719 C 12.421875 72.277344 15.152344 72.265625 15.261719 70.386719 C 15.902344 59.425781 16.375 48.511719 16.171875 37.535156 C 16.105469 34 16.527344 30.300781 14.972656 26.992188 C 13.355469 23.550781 10.429688 19.738281 6.609375 18.710938 C 6.074219 18.566406 5.546875 19.175781 5.867188 19.671875 " fill-opacity="1" fill-rule="nonzero"/><path fill="#f9b41e" d="M 144.320312 14.625 C 141.042969 20.972656 140.628906 28.707031 140.558594 35.753906 C 140.511719 40.273438 141.035156 44.757812 140.917969 49.285156 C 140.78125 54.585938 140.453125 59.832031 140.90625 65.128906 C 140.960938 65.777344 141.324219 66.441406 142.023438 66.589844 C 143.496094 66.90625 144.871094 67.1875 146.375 67.289062 C 147.992188 67.394531 148.378906 64.691406 146.757812 64.449219 C 145.429688 64.246094 144.140625 63.960938 142.828125 63.664062 C 143.203125 64.152344 143.574219 64.640625 143.945312 65.128906 C 143.582031 60.269531 143.871094 55.449219 144.019531 50.589844 C 144.152344 46.269531 143.75 42.035156 143.566406 37.734375 C 143.238281 30.167969 143.988281 22.402344 145.015625 14.914062 C 145.070312 14.523438 144.539062 14.207031 144.320312 14.625 " fill-opacity="1" fill-rule="nonzero"/><path fill="#f9b41e" d="M 147.101562 77.046875 C 144.878906 78.785156 142.082031 79.539062 141.59375 82.4375 C 141.027344 85.78125 141.152344 89.304688 141.078125 92.683594 C 140.910156 100.207031 140.988281 107.722656 141.214844 115.246094 C 141.414062 121.863281 141.027344 128.578125 142.59375 135.066406 C 143.375 138.292969 145.503906 138.90625 148.542969 139.582031 C 149.976562 139.902344 150.863281 137.96875 149.550781 137.191406 C 148.445312 136.539062 147.277344 136.222656 146.140625 135.660156 C 144.921875 135.054688 145.085938 130.007812 145.003906 128.894531 C 144.582031 122.953125 144.722656 116.96875 144.605469 111.015625 C 144.484375 104.90625 144.441406 98.792969 144.441406 92.683594 C 144.441406 89.863281 144.492188 87.042969 144.429688 84.222656 C 144.363281 81.214844 146.457031 80.089844 147.804688 77.589844 C 148.058594 77.113281 147.488281 76.742188 147.101562 77.046875 " fill-opacity="1" fill-rule="nonzero"/><path fill="#f9b41e" d="M 124.460938 34.449219 C 130.144531 34.980469 137.328125 33.101562 141.613281 29.230469 C 141.695312 29.15625 141.585938 29.015625 141.496094 29.078125 C 136.476562 32.527344 130.558594 34.316406 124.460938 34.246094 C 124.328125 34.246094 124.335938 34.4375 124.460938 34.449219 " fill-opacity="1" fill-rule="nonzero"/><path fill="#f9b41e" d="M 125.574219 40.425781 C 132.214844 40.917969 138.492188 38.296875 143.464844 34.039062 C 143.550781 33.964844 143.425781 33.847656 143.339844 33.917969 C 138.234375 37.988281 132.113281 40.1875 125.574219 40.128906 C 125.382812 40.125 125.386719 40.410156 125.574219 40.425781 " fill-opacity="1" fill-rule="nonzero"/><path fill="#f9b41e" d="M 128.546875 46.738281 C 133.117188 46.859375 137.503906 44.179688 141.222656 41.839844 C 141.324219 41.777344 141.234375 41.617188 141.125 41.675781 C 137.203125 43.878906 133.101562 46.046875 128.546875 46.410156 C 128.339844 46.429688 128.332031 46.734375 128.546875 46.738281 " fill-opacity="1" fill-rule="nonzero"/><path fill="#f9b41e" d="M 128.175781 51.90625 C 133.675781 51.769531 138.96875 49.289062 143.445312 46.277344 C 143.53125 46.21875 143.453125 46.074219 143.359375 46.132812 C 138.695312 49.078125 133.574219 50.835938 128.136719 51.625 C 127.976562 51.648438 128.015625 51.910156 128.175781 51.90625 " fill-opacity="1" fill-rule="nonzero"/><path fill="#f9b41e" d="M 130.804688 57.433594 C 134.789062 56.664062 138.863281 55.433594 142.351562 53.351562 C 142.488281 53.269531 142.367188 53.0625 142.226562 53.136719 C 138.59375 55.144531 134.425781 55.5 130.714844 57.21875 C 130.585938 57.277344 130.683594 57.457031 130.804688 57.433594 " fill-opacity="1" fill-rule="nonzero"/><path fill="#f9b41e" d="M 133.335938 61.902344 C 136.375 62.382812 139.125 60.9375 141.246094 58.875 C 141.339844 58.78125 141.199219 58.644531 141.101562 58.730469 C 138.980469 60.707031 136.257812 61.679688 133.375 61.625 C 133.21875 61.621094 133.179688 61.875 133.335938 61.902344 " fill-opacity="1" fill-rule="nonzero"/><path fill="#f9b41e" d="M 127.027344 90.414062 C 132 91.34375 137.675781 89.816406 141.59375 86.636719 C 141.660156 86.585938 141.578125 86.496094 141.511719 86.53125 C 139.308594 87.652344 137.195312 88.816406 134.8125 89.539062 C 132.28125 90.304688 129.675781 90.339844 127.0625 90.171875 C 126.921875 90.160156 126.890625 90.386719 127.027344 90.414062 " fill-opacity="1" fill-rule="nonzero"/><path fill="#f9b41e" d="M 125.945312 97.488281 C 132.394531 98.175781 138.96875 96.023438 143.839844 91.84375 C 143.933594 91.761719 143.800781 91.636719 143.707031 91.710938 C 138.59375 95.714844 132.304688 97.109375 125.945312 97.179688 C 125.742188 97.179688 125.753906 97.46875 125.945312 97.488281 " fill-opacity="1" fill-rule="nonzero"/><path fill="#f9b41e" d="M 128.546875 106.011719 C 133.277344 106.246094 138.816406 105.152344 142.355469 101.847656 C 142.433594 101.773438 142.328125 101.632812 142.242188 101.699219 C 138.34375 104.664062 133.285156 105.378906 128.546875 105.699219 C 128.347656 105.714844 128.347656 106 128.546875 106.011719 " fill-opacity="1" fill-rule="nonzero"/><path fill="#f9b41e" d="M 128.175781 114.164062 C 132.726562 114.714844 138.339844 113.660156 141.996094 110.75 C 142.078125 110.683594 141.988281 110.527344 141.886719 110.566406 C 139.832031 111.347656 137.941406 112.4375 135.8125 113.0625 C 133.308594 113.800781 130.761719 113.847656 128.175781 113.847656 C 127.964844 113.847656 127.980469 114.140625 128.175781 114.164062 " fill-opacity="1" fill-rule="nonzero"/><path fill="#f9b41e" d="M 128.101562 121.546875 C 133.457031 123.933594 139.144531 120.558594 143.097656 117.035156 C 143.171875 116.96875 143.070312 116.828125 142.984375 116.890625 C 138.648438 120.039062 133.742188 123.101562 128.214844 121.273438 C 128.054688 121.21875 127.945312 121.476562 128.101562 121.546875 " fill-opacity="1" fill-rule="nonzero"/><path fill="#f9b41e" d="M 127.433594 129.734375 C 132.765625 130.269531 138.398438 128.992188 141.976562 124.808594 C 142.042969 124.730469 141.9375 124.617188 141.859375 124.691406 C 137.878906 128.460938 132.753906 129.515625 127.433594 129.402344 C 127.214844 129.394531 127.222656 129.714844 127.433594 129.734375 " fill-opacity="1" fill-rule="nonzero"/><path fill="#f9b41e" d="M 130.402344 135.269531 C 134.101562 135.386719 137.433594 133.804688 140.480469 131.878906 C 140.589844 131.808594 140.492188 131.636719 140.378906 131.703125 C 137.332031 133.480469 133.929688 134.6875 130.402344 134.980469 C 130.21875 134.992188 130.210938 135.265625 130.402344 135.269531 " fill-opacity="1" fill-rule="nonzero"/><path fill="#f9b41e" d="M 128.53125 161.121094 C 133.253906 162.011719 138.601562 160 142.707031 157.808594 C 142.800781 157.757812 142.734375 157.597656 142.632812 157.632812 C 140.519531 158.417969 138.425781 159.261719 136.265625 159.90625 C 133.722656 160.664062 131.167969 160.789062 128.546875 160.996094 C 128.480469 161.003906 128.457031 161.105469 128.53125 161.121094 " fill-opacity="1" fill-rule="nonzero"/><path fill="#f9b41e" d="M 128.175781 168.621094 C 133.554688 169.265625 139.828125 166.742188 144.1875 163.726562 C 144.265625 163.675781 144.21875 163.53125 144.121094 163.570312 C 141.707031 164.523438 139.421875 165.773438 136.988281 166.699219 C 134.132812 167.78125 131.21875 168.238281 128.175781 168.320312 C 127.976562 168.328125 127.988281 168.597656 128.175781 168.621094 " fill-opacity="1" fill-rule="nonzero"/><path fill="#f9b41e" d="M 132.292969 174.890625 C 136.054688 174.371094 140.066406 173.246094 143.449219 171.515625 C 143.546875 171.464844 143.480469 171.3125 143.378906 171.34375 C 139.660156 172.386719 135.910156 173.484375 132.226562 174.648438 C 132.066406 174.699219 132.136719 174.914062 132.292969 174.890625 " fill-opacity="1" fill-rule="nonzero"/><path fill="#f9b41e" d="M 130.03125 183.082031 C 134.160156 183.464844 138.769531 182.019531 142.34375 180.050781 C 142.457031 179.992188 142.378906 179.804688 142.257812 179.847656 C 140.316406 180.519531 138.394531 181.242188 136.410156 181.785156 C 134.3125 182.359375 132.179688 182.496094 130.03125 182.757812 C 129.828125 182.785156 129.824219 183.0625 130.03125 183.082031 " fill-opacity="1" fill-rule="nonzero"/><path fill="#f9b41e" d="M 129.984375 190.132812 C 133.945312 191.074219 139.324219 189.28125 142.367188 186.703125 C 142.464844 186.617188 142.339844 186.480469 142.234375 186.53125 C 138.265625 188.414062 134.558594 190.234375 130.03125 189.777344 C 129.828125 189.757812 129.789062 190.085938 129.984375 190.132812 " fill-opacity="1" fill-rule="nonzero"/><path fill="#f9b41e" d="M 130.738281 197.128906 C 132.835938 197.429688 135.160156 196.542969 137.066406 195.777344 C 139.257812 194.902344 141.203125 193.675781 142.738281 191.890625 C 142.828125 191.785156 142.683594 191.632812 142.582031 191.734375 C 139.417969 194.902344 134.976562 196.054688 130.738281 196.867188 C 130.613281 196.894531 130.605469 197.109375 130.738281 197.128906 " fill-opacity="1" fill-rule="nonzero"/><path fill="#f9b41e" d="M 131.054688 203.449219 C 134.988281 205.367188 140.171875 201.636719 142.722656 198.914062 C 142.800781 198.828125 142.683594 198.714844 142.597656 198.789062 C 139.703125 201.324219 135.191406 204.253906 131.195312 203.125 C 131.003906 203.070312 130.871094 203.363281 131.054688 203.449219 " fill-opacity="1" fill-rule="nonzero"/><path fill="#f9b41e" d="M 134.117188 209.757812 C 137.089844 209.917969 140.316406 208.445312 142.359375 206.332031 C 142.433594 206.25 142.335938 206.117188 142.238281 206.175781 C 139.613281 207.800781 137.246094 209.085938 134.117188 209.433594 C 133.914062 209.457031 133.90625 209.746094 134.117188 209.757812 " fill-opacity="1" fill-rule="nonzero"/><path fill="#f9b41e" d="M 138.839844 154.761719 C 138.425781 163.527344 137.695312 172.289062 137.734375 181.066406 C 137.734375 181.191406 137.929688 181.191406 137.929688 181.066406 C 138.027344 172.296875 139.40625 163.539062 139.050781 154.761719 C 139.046875 154.625 138.847656 154.625 138.839844 154.761719 " fill-opacity="1" fill-rule="nonzero"/><path fill="#f9b41e" d="M 138.058594 185.515625 C 137.777344 194.042969 139.121094 202.558594 139.25 211.078125 C 139.25 211.167969 139.386719 211.167969 139.386719 211.078125 C 139.453125 202.546875 138.6875 194.035156 138.347656 185.515625 C 138.339844 185.328125 138.066406 185.328125 138.058594 185.515625 " fill-opacity="1" fill-rule="nonzero"/><path fill="#f9b41e" d="M 134.761719 168.441406 C 132.308594 181.269531 133.5625 194.453125 134.414062 207.371094 C 134.421875 207.46875 134.570312 207.46875 134.5625 207.371094 C 133.84375 194.515625 132.734375 181.265625 134.960938 168.496094 C 134.984375 168.367188 134.785156 168.3125 134.761719 168.441406 " fill-opacity="1" fill-rule="nonzero"/><path fill="#f9b41e" d="M 137.332031 86.554688 C 134.75 102.183594 136.773438 118.332031 137.746094 134.015625 C 137.753906 134.125 137.921875 134.125 137.917969 134.015625 C 137.320312 118.171875 135.691406 102.40625 137.59375 86.589844 C 137.609375 86.441406 137.355469 86.40625 137.332031 86.554688 " fill-opacity="1" fill-rule="nonzero"/><path fill="#f9b41e" d="M 131.753906 86.179688 C 129.464844 95.992188 131.320312 106.296875 131.410156 116.230469 C 131.414062 116.367188 131.625 116.367188 131.625 116.230469 C 131.652344 106.226562 130.515625 96.203125 132.023438 86.257812 C 132.050781 86.082031 131.796875 86 131.753906 86.179688 " fill-opacity="1" fill-rule="nonzero"/><path fill="#f9b41e" d="M 131.394531 122.15625 C 131.550781 128.097656 132.394531 134.003906 132.539062 139.941406 C 132.539062 140.0625 132.726562 140.0625 132.726562 139.941406 C 132.808594 133.988281 132.257812 128.074219 131.640625 122.15625 C 131.625 122.003906 131.390625 121.996094 131.394531 122.15625 " fill-opacity="1" fill-rule="nonzero"/><path fill="#f9b41e" d="M 137.382812 23.140625 C 134.679688 26.882812 135.90625 32.851562 135.871094 37.148438 C 135.804688 45.023438 134.273438 52.964844 134.78125 60.835938 C 134.792969 60.992188 135.011719 60.992188 135.023438 60.835938 C 135.554688 53.460938 135.945312 46.003906 136.152344 38.609375 C 136.285156 33.75 134.894531 27.621094 137.574219 23.253906 C 137.648438 23.132812 137.464844 23.03125 137.382812 23.140625 " fill-opacity="1" fill-rule="nonzero"/><path fill="#f9b41e" d="M 130.207031 31.644531 C 129.492188 38.664062 129.753906 45.714844 129.835938 52.757812 C 129.835938 52.886719 130.03125 52.886719 130.03125 52.757812 C 130.097656 45.71875 130.046875 38.675781 130.394531 31.644531 C 130.402344 31.519531 130.21875 31.523438 130.207031 31.644531 " fill-opacity="1" fill-rule="nonzero"/><path fill="#f9b41e" d="M 64.1875 111.535156 C 75.410156 115.195312 87.242188 113.796875 98.671875 112.078125 C 98.753906 112.066406 98.734375 111.921875 98.652344 111.933594 C 87.066406 113.480469 75.675781 114.289062 64.246094 111.332031 C 64.109375 111.296875 64.058594 111.496094 64.1875 111.535156 " fill-opacity="1" fill-rule="nonzero"/><path fill="#f9b41e" d="M 74.054688 119.332031 C 80.789062 121.625 88.515625 120.765625 95.21875 118.742188 C 95.289062 118.722656 95.261719 118.617188 95.1875 118.632812 C 88.214844 120.109375 81.070312 121.410156 74.09375 119.1875 C 74 119.15625 73.964844 119.300781 74.054688 119.332031 " fill-opacity="1" fill-rule="nonzero"/><path fill="#f9b41e" d="M 78.9375 108.039062 C 83.667969 108.777344 88.417969 108.488281 93.117188 107.660156 C 93.175781 107.652344 93.148438 107.566406 93.09375 107.574219 C 88.359375 108.277344 83.707031 108.574219 78.945312 107.960938 C 78.902344 107.953125 78.890625 108.03125 78.9375 108.039062 " fill-opacity="1" fill-rule="nonzero"/></g></g></g></svg>