<svg xmlns="http://www.w3.org/2000/svg" xmlns:xlink="http://www.w3.org/1999/xlink" width="500" zoomAndPan="magnify" viewBox="0 0 375 374.999991" height="500" preserveAspectRatio="xMidYMid meet" version="1.0"><defs><filter x="0%" y="0%" width="100%" height="100%" id="5325b7ce10"><feColorMatrix values="0 0 0 0 1 0 0 0 0 1 0 0 0 0 1 0 0 0 1 0" color-interpolation-filters="sRGB"/></filter><mask id="47261cecb9"><g filter="url(#5325b7ce10)"><rect x="-37.5" width="450" fill="#000000" y="-37.499999" height="449.999989" fill-opacity="0.298"/></g></mask><clipPath id="9e911895a5"><path d="M 62 75 L 280.804688 75 L 280.804688 145.902344 L 62 145.902344 Z M 62 75 " clip-rule="nonzero"/></clipPath><clipPath id="53bcd8cba2"><path d="M 0.304688 75 L 268 75 L 268 347.179688 L 0.304688 347.179688 Z M 0.304688 75 " clip-rule="nonzero"/></clipPath><clipPath id="a0fa90ed61"><path d="M 16 0.121094 L 174 0.121094 L 174 300 L 16 300 Z M 16 0.121094 " clip-rule="nonzero"/></clipPath><clipPath id="fcd855dcc3"><rect x="0" width="282" y="0" height="348"/></clipPath></defs><g mask="url(#47261cecb9)"><g transform="matrix(1, 0, 0, 1, 47, 15)"><g clip-path="url(#fcd855dcc3)"><path fill="#f9b41e" d="M 274.363281 143.515625 L 250.285156 139.015625 C 249.042969 145.667969 253.425781 152.0625 260.074219 153.304688 C 260.199219 153.328125 260.328125 153.335938 260.453125 153.355469 L 260.453125 243.269531 L 262.625 243.269531 L 262.625 153.507812 C 268.289062 153.371094 273.277344 149.304688 274.363281 143.515625 Z M 30.691406 267.480469 L 22.523438 267.480469 L 22.523438 100.078125 L 30.691406 137.707031 L 30.691406 267.480469 " fill-opacity="1" fill-rule="nonzero"/><path fill="#f9b41e" d="M 185.257812 79.882812 L 123.472656 79.882812 L 123.472656 129.46875 L 185.257812 129.46875 Z M 30.691406 298.949219 L 22.523438 298.949219 L 22.523438 307.441406 L 30.691406 307.441406 Z M 30.691406 317.179688 L 22.523438 317.179688 L 22.523438 325.480469 L 30.691406 325.480469 Z M 42.65625 329.140625 L 10.179688 329.140625 L 10.179688 340.703125 L 42.65625 340.703125 Z M 240.242188 337.179688 L 59.726562 337.179688 L 59.726562 346.472656 L 240.242188 346.472656 Z M 165.695312 132.542969 L 165.695312 147.769531 L 171.75 147.769531 L 184.777344 210.3125 L 184.777344 133.644531 Z M 143.136719 132.542969 L 143.136719 147.769531 L 137.082031 147.769531 L 124.054688 210.3125 L 124.054688 133.644531 L 143.136719 132.542969 " fill-opacity="1" fill-rule="nonzero"/><path fill="#f9b41e" d="M 243.476562 337.671875 L 56.488281 337.671875 L 56.488281 328.863281 L 243.476562 328.863281 L 243.476562 337.671875 " fill-opacity="1" fill-rule="nonzero"/><g clip-path="url(#9e911895a5)"><path fill="#f9b41e" d="M 280.804688 121.019531 L 275.300781 145.324219 L 62.023438 98.613281 L 66.960938 75.59375 L 280.804688 121.019531 " fill-opacity="1" fill-rule="nonzero"/></g><g clip-path="url(#53bcd8cba2)"><path fill="#f9b41e" d="M 212.660156 309.179688 L 95.253906 309.179688 L 95.253906 316.882812 L 212.660156 316.882812 Z M 267.8125 199.496094 L 255.828125 199.496094 L 255.828125 203.160156 L 267.8125 203.160156 Z M 267.8125 191.421875 L 255.828125 191.421875 L 255.828125 195.09375 L 267.8125 195.09375 Z M 103.527344 328.925781 L 110.136719 328.925781 L 110.136719 312.597656 L 103.527344 312.597656 Z M 117.71875 328.925781 L 124.328125 328.925781 L 124.328125 312.597656 L 117.71875 312.597656 Z M 130.742188 328.925781 L 137.351562 328.925781 L 137.351562 312.597656 L 130.742188 312.597656 Z M 144.652344 328.925781 L 151.261719 328.925781 L 151.261719 312.597656 L 144.652344 312.597656 Z M 159.121094 328.925781 L 165.734375 328.925781 L 165.734375 312.597656 L 159.121094 312.597656 Z M 172.148438 328.925781 L 178.757812 328.925781 L 178.757812 312.597656 L 172.148438 312.597656 Z M 186.054688 328.925781 L 192.664062 328.925781 L 192.664062 312.597656 L 186.054688 312.597656 Z M 199.082031 328.925781 L 205.6875 328.925781 L 205.6875 312.597656 L 199.082031 312.597656 Z M 187.835938 221.785156 L 129.203125 186.933594 L 127.351562 190.042969 L 175.480469 218.652344 L 121.601562 220.792969 L 121.746094 224.414062 Z M 112.414062 267.902344 L 110.8125 271.152344 L 191.164062 310.71875 L 102.609375 309.933594 L 102.578125 313.554688 L 206.996094 314.480469 Z M 196.15625 265.914062 L 123.203125 265.746094 L 187.59375 224.125 L 185.628906 221.082031 L 110.972656 269.339844 L 196.144531 269.535156 Z M 177.804688 172.003906 L 130.476562 172.003906 L 130.476562 175.625 L 177.804688 175.625 Z M 207.078125 314.605469 L 174.195312 145.957031 L 135.609375 145.957031 L 109.84375 269.148438 L 100.824219 311.367188 L 104.367188 312.125 L 113.382812 269.894531 L 138.550781 149.578125 L 171.214844 149.578125 L 203.523438 315.296875 Z M 169.769531 135.070312 L 140.113281 135.070312 L 140.113281 147.753906 L 169.769531 147.753906 Z M 190.363281 129.019531 L 118.367188 129.019531 L 118.367188 135.070312 L 190.363281 135.070312 Z M 176.855469 75.4375 L 131.710938 75.4375 L 131.710938 83.34375 L 176.855469 83.34375 Z M 37.527344 232.863281 L 15.496094 232.863281 L 15.496094 242.550781 L 37.527344 242.550781 Z M 37.527344 217.675781 L 15.496094 217.675781 L 15.496094 227.359375 L 37.527344 227.359375 Z M 37.527344 203.433594 L 15.496094 203.433594 L 15.496094 213.117188 L 37.527344 213.117188 Z M 42.085938 305.785156 L 10.367188 305.785156 L 10.367188 317.179688 L 42.085938 317.179688 Z M 48.164062 323.824219 L 3.910156 323.824219 L 3.910156 329.140625 L 48.164062 329.140625 Z M 52.148438 347.179688 L 0.304688 347.179688 L 0.304688 338.828125 L 52.148438 338.828125 L 52.148438 347.179688 " fill-opacity="1" fill-rule="nonzero"/></g><g clip-path="url(#a0fa90ed61)"><path fill="#f9b41e" d="M 173.558594 71.644531 L 134.179688 71.644531 L 134.179688 78.070312 L 173.558594 78.070312 Z M 29.773438 111.140625 C 30.917969 120.355469 33.296875 129.597656 35.003906 138.710938 C 35.699219 142.417969 37.414062 147.0625 37.378906 150.917969 C 38.015625 151.058594 38.890625 151.371094 39.363281 151.46875 C 40.789062 151.75 42.214844 152.035156 43.636719 152.320312 C 47.558594 143.238281 51.664062 134.207031 55.351562 125.03125 C 55.367188 124.984375 55.375 124.964844 55.394531 124.925781 C 55.308594 124.472656 55.203125 124.015625 55.078125 123.625 C 54.226562 120.910156 53.875 117.914062 53.285156 115.125 C 52.933594 113.457031 52.695312 111.671875 52.273438 109.988281 C 51.382812 110.023438 50 109.453125 49.179688 109.265625 C 44.335938 108.183594 39.300781 107.382812 34.527344 106.007812 C 34.027344 106.890625 32.796875 107.820312 32.148438 108.523438 C 31.421875 109.316406 30.652344 110.488281 29.773438 111.140625 Z M 30.742188 89.785156 C 30.820312 89.421875 30.859375 89.125 30.871094 88.875 C 30.832031 89.179688 30.804688 89.492188 30.742188 89.785156 Z M 30.875 88.71875 C 30.875 87.355469 29.953125 87.945312 30.875 88.71875 Z M 43.394531 48.476562 C 43.433594 48.566406 43.480469 48.671875 43.53125 48.796875 C 44.660156 51.667969 46.007812 54.46875 47.25 57.292969 C 47.617188 58.128906 47.90625 59.101562 48.378906 59.890625 C 50.15625 60.644531 52.328125 60.957031 54.28125 61.390625 C 60.507812 59.101562 66.734375 56.820312 72.957031 54.535156 C 73.125 45.585938 73.296875 36.636719 73.464844 27.691406 C 68.910156 26.820312 64.355469 25.949219 59.804688 25.078125 C 54.691406 32.523438 49.847656 40.320312 44.253906 47.375 C 44.019531 47.675781 43.667969 48.078125 43.394531 48.476562 Z M 30.96875 88.351562 C 30.929688 88.472656 30.917969 88.609375 30.898438 88.742188 C 30.953125 88.785156 31.007812 88.832031 31.078125 88.878906 C 32.640625 89.929688 33.933594 92.351562 35.125 93.835938 C 35.371094 94.148438 35.6875 94.421875 35.824219 94.566406 C 36.273438 94.640625 36.800781 94.683594 37.03125 94.699219 C 39.777344 94.851562 42.570312 95.417969 45.324219 95.914062 C 47.109375 87.789062 48.898438 79.667969 50.683594 71.542969 C 49.558594 71.257812 48.429688 70.96875 47.304688 70.683594 C 46.160156 70.394531 44.894531 69.890625 43.714844 69.761719 C 43.695312 69.765625 43.6875 69.769531 43.667969 69.769531 C 40.246094 70.363281 36.746094 72.007812 33.402344 73.273438 C 32.917969 76.269531 32.4375 79.265625 31.953125 82.261719 C 31.648438 84.167969 31.605469 86.527344 30.96875 88.351562 Z M 82.398438 10.164062 C 81.976562 31.796875 81.550781 53.433594 81.128906 75.0625 C 81.109375 76.167969 80.421875 76.839844 79.597656 77.082031 C 79.230469 77.222656 78.8125 77.277344 78.34375 77.1875 C 74.222656 76.382812 70.105469 75.582031 65.984375 74.78125 C 64.210938 82.75 62.429688 90.722656 60.652344 98.691406 C 65.167969 99.796875 69.679688 100.894531 74.195312 101.996094 C 75.691406 102.359375 76.082031 103.988281 75.511719 105.230469 C 70.332031 116.539062 65.203125 127.875 60.15625 139.242188 C 57.070312 146.195312 53.871094 153.136719 51.121094 160.230469 C 49.53125 164.320312 47.96875 171.582031 42.65625 172.285156 C 33.886719 173.445312 29.242188 155.574219 27.660156 149.875 C 23.914062 136.375 22.070312 122.304688 20.679688 108.386719 C 17.820312 79.835938 28.570312 53.113281 45.535156 30.523438 C 51.929688 22.007812 58.628906 11.574219 66.957031 4.800781 C 70.53125 1.890625 76.421875 -2.042969 80.269531 2.230469 C 82.429688 4.628906 82.457031 7.234375 82.398438 10.164062 Z M 37.527344 299.898438 L 16.066406 299.898438 L 16.066406 266.664062 L 37.527344 266.664062 L 37.527344 299.898438 " fill-opacity="1" fill-rule="nonzero"/></g><path fill="#f9b41e" d="M 62.871094 105.722656 L 68.203125 106.964844 L 69.6875 100.269531 L 64.359375 99.152344 Z M 70.808594 69.460938 L 76.140625 70.574219 L 74.652344 77.269531 L 69.320312 76.03125 L 70.808594 69.460938 " fill-opacity="1" fill-rule="nonzero"/></g></g></g></svg>