<svg xmlns="http://www.w3.org/2000/svg" xmlns:xlink="http://www.w3.org/1999/xlink" width="500" zoomAndPan="magnify" viewBox="0 0 375 374.999991" height="500" preserveAspectRatio="xMidYMid meet" version="1.0"><defs><filter x="0%" y="0%" width="100%" height="100%" id="854516f406"><feColorMatrix values="0 0 0 0 1 0 0 0 0 1 0 0 0 0 1 0 0 0 1 0" color-interpolation-filters="sRGB"/></filter><mask id="4ff0777437"><g filter="url(#854516f406)"><rect x="-37.5" width="450" fill="#000000" y="-37.499999" height="449.999989" fill-opacity="0.3098"/></g></mask><clipPath id="c0bc1f3579"><path d="M 1 1 L 332 1 L 332 297.5 L 1 297.5 Z M 1 1 " clip-rule="nonzero"/></clipPath><clipPath id="9b7b39dce8"><rect x="0" width="333" y="0" height="298"/></clipPath></defs><g mask="url(#4ff0777437)"><g transform="matrix(1, 0, 0, 1, 21, 37)"><g clip-path="url(#9b7b39dce8)"><g clip-path="url(#c0bc1f3579)"><path fill="#f9b41e" d="M 1.210938 259.128906 L 1.210938 220.769531 L 4.96875 220.769531 C 9.652344 220.769531 9.640625 220.402344 4.808594 215.203125 C 0.910156 211.007812 0.894531 210.902344 1.742188 192.089844 C 2.699219 170.796875 3.457031 167.5625 7.265625 168.558594 C 13.25 170.125 14.011719 167.636719 13.46875 148.304688 C 13.183594 138.179688 12.027344 125.484375 10.902344 120.09375 C 9.683594 114.265625 9.414062 109.945312 10.242188 109.433594 C 11.054688 108.929688 10.726562 105.191406 9.441406 100.355469 C 5.023438 83.730469 5.109375 83.65625 32.300781 81.402344 C 44.542969 80.386719 64.878906 79.070312 77.484375 78.476562 L 100.402344 77.390625 L 100.402344 86.644531 C 100.402344 91.734375 101 95.898438 101.730469 95.898438 C 102.464844 95.898438 114.804688 90.230469 129.160156 83.304688 C 143.511719 76.375 160.265625 68.519531 166.386719 65.84375 C 172.507812 63.171875 179.925781 59.628906 182.875 57.972656 C 185.820312 56.3125 192.078125 54.414062 196.773438 53.75 C 202.761719 52.902344 209.507812 50.191406 219.359375 44.671875 C 227.085938 40.34375 235.941406 35.527344 239.042969 33.972656 C 242.800781 32.082031 244.679688 30.113281 244.679688 28.058594 C 244.679688 26.363281 246.445312 21.960938 248.601562 18.277344 C 251.203125 13.832031 252.308594 10.101562 251.882812 7.195312 C 251.347656 3.5625 251.855469 2.660156 254.847656 1.90625 C 260.539062 0.476562 264.632812 2.378906 263.683594 6.011719 C 262.742188 9.613281 265.566406 15.703125 270.074219 19.789062 C 271.8125 21.363281 273.234375 23.921875 273.234375 25.472656 C 273.234375 27.023438 274.25 28.683594 275.488281 29.160156 C 276.726562 29.636719 277.742188 31.832031 277.742188 34.035156 C 277.742188 36.300781 279.769531 40.507812 282.402344 43.703125 C 285.410156 47.355469 287.320312 51.609375 287.800781 55.707031 C 288.207031 59.195312 289.4375 64.082031 290.53125 66.5625 C 291.625 69.046875 292.984375 73.582031 293.550781 76.648438 L 294.582031 82.21875 L 304.195312 81.320312 C 316.292969 80.1875 317.214844 82.886719 305.621094 85.484375 C 301.117188 86.492188 297.148438 88.066406 296.808594 88.976562 C 296.464844 89.890625 296.65625 96.050781 297.234375 102.671875 C 297.816406 109.289062 298.113281 115.722656 297.898438 116.960938 C 297.683594 118.203125 297.457031 120.722656 297.394531 122.558594 C 297.3125 124.882812 296.597656 125.632812 295.023438 125.027344 C 293.246094 124.34375 292.769531 125.46875 292.769531 130.339844 C 292.769531 137.613281 295.679688 138.785156 295.984375 131.628906 C 296.09375 128.941406 297.058594 134.527344 298.117188 144.042969 C 299.179688 153.558594 300.519531 162.875 301.097656 164.742188 C 301.980469 167.601562 301.402344 168.40625 297.457031 169.78125 C 293.015625 171.332031 292.769531 171.828125 292.769531 179.292969 C 292.769531 183.625 293.113281 187.511719 293.535156 187.933594 C 293.957031 188.355469 294.628906 207.558594 295.035156 230.605469 C 295.4375 253.65625 296.289062 273.03125 296.921875 273.664062 C 297.554688 274.300781 305.503906 275.011719 314.582031 275.25 L 331.09375 275.679688 L 331.976562 297.492188 L 1.214844 297.492188 L 1.214844 259.132812 Z M 81.390625 274.550781 C 83.773438 271.183594 83.800781 271.183594 86.15625 274.175781 C 88.507812 277.15625 88.554688 277.148438 91.425781 273.421875 C 93.019531 271.355469 94.335938 269.152344 94.355469 268.535156 C 94.375 267.914062 95.507812 267.40625 96.875 267.40625 C 99.117188 267.40625 99.265625 265.300781 98.386719 245.96875 C 95.386719 179.902344 93.863281 149.257812 93.566406 148.855469 C 93.382812 148.605469 86.589844 151.527344 78.472656 155.351562 C 64.117188 162.109375 50.953125 165.9375 49.179688 163.867188 C 48.699219 163.308594 46.128906 154.4375 43.472656 144.15625 L 38.636719 125.464844 L 42.671875 122.246094 C 46.125 119.492188 46.457031 118.570312 44.996094 115.835938 C 44.058594 114.082031 43.289062 110.949219 43.289062 108.875 C 43.289062 106.800781 42.726562 104.757812 42.039062 104.328125 C 41.351562 103.902344 36.0625 103.953125 30.292969 104.4375 L 19.796875 105.316406 L 20.09375 134.527344 C 20.253906 150.59375 20.84375 164.195312 21.402344 164.753906 C 21.957031 165.3125 23.042969 164.773438 23.8125 163.554688 C 24.871094 161.878906 25.214844 162.359375 25.234375 165.527344 C 25.246094 167.835938 26.265625 170.097656 27.503906 170.574219 C 29.203125 171.226562 29.523438 172.859375 28.8125 177.296875 C 28.039062 182.160156 28.308594 183.15625 30.414062 183.15625 C 31.808594 183.15625 32.53125 183.832031 32.019531 184.660156 C 31.507812 185.488281 29.101562 186.164062 26.671875 186.164062 C 22.421875 186.164062 20.460938 189.394531 23.550781 191.304688 C 24.269531 191.75 24.554688 193.675781 24.1875 195.59375 C 23.699219 198.152344 24.511719 199.601562 27.253906 201.070312 C 29.304688 202.167969 31.675781 202.640625 32.523438 202.113281 C 34.984375 200.589844 36.070312 203.867188 34.238281 207.292969 C 32.265625 210.984375 34.921875 215.398438 38.328125 214.089844 C 41.007812 213.0625 42.703125 217.441406 40.484375 219.664062 C 38.128906 222.023438 38.351562 225.28125 40.867188 225.28125 C 44.277344 225.28125 44.832031 234.257812 41.546875 236.3125 C 40.027344 237.261719 38.78125 239.152344 38.78125 240.511719 C 38.78125 241.871094 37.527344 243.3125 35.992188 243.714844 C 32.070312 244.738281 29.550781 252.488281 32.035156 255.886719 C 33.800781 258.304688 34.121094 258.3125 36.402344 256.035156 C 37.761719 254.671875 39.941406 253.988281 41.28125 254.503906 C 43.476562 255.34375 43.457031 255.699219 41.09375 258.316406 C 38.371094 261.328125 39.050781 264.394531 42.445312 264.394531 C 43.535156 264.394531 45.234375 265.371094 46.226562 266.566406 C 47.453125 268.046875 50.894531 268.695312 57.078125 268.605469 C 65.007812 268.496094 66.53125 268.953125 69.363281 272.304688 C 72.214844 275.679688 74.972656 277.429688 78.050781 277.816406 C 78.570312 277.882812 80.074219 276.414062 81.390625 274.550781 Z M 130.660156 246.34375 C 150.199219 168.242188 152.605469 156.371094 152.367188 139.230469 C 152.246094 130.375 151.707031 122.6875 151.164062 122.148438 C 150.625 121.605469 143.886719 124.214844 136.1875 127.941406 C 128.488281 131.667969 117.71875 136.734375 112.25 139.195312 C 106.785156 141.65625 101.902344 144.332031 101.402344 145.136719 C 100.90625 145.945312 101.117188 158.386719 101.875 172.78125 C 102.632812 187.175781 104.054688 214.1875 105.03125 232.804688 C 107.144531 273.15625 107.855469 275.359375 118.433594 274.570312 L 123.695312 274.175781 L 130.65625 246.34375 Z M 142.679688 273.441406 C 145.398438 273.429688 146.890625 272.453125 147.445312 270.339844 C 148.191406 267.484375 147.671875 267.289062 140.480469 267.707031 C 133.585938 268.105469 132.65625 268.5625 132.203125 271.753906 C 131.765625 274.867188 132.164062 275.222656 135.210938 274.40625 C 137.140625 273.886719 140.503906 273.453125 142.679688 273.441406 Z M 292.054688 236.285156 C 291.367188 212.355469 290.304688 196.617188 289.265625 194.949219 C 288.007812 192.933594 288.046875 191.796875 289.425781 190.414062 C 291.375 188.464844 291.839844 180.175781 290.316406 174.488281 C 289.796875 172.546875 287.8125 170.6875 285.6875 170.15625 C 282.417969 169.332031 282.046875 168.5625 282.617188 163.777344 C 282.976562 160.785156 282.53125 157.0625 281.632812 155.503906 C 280.40625 153.386719 280.46875 152.503906 281.875 151.996094 C 282.90625 151.621094 283.753906 149.039062 283.753906 146.257812 C 283.753906 142.859375 284.769531 140.492188 286.855469 139.03125 C 289.332031 137.292969 289.859375 135.546875 289.484375 130.316406 L 289.011719 123.777344 L 282.59375 124.246094 L 276.175781 124.71875 L 272.3125 115.949219 C 270.183594 111.128906 267.246094 104.476562 265.785156 101.164062 C 264.324219 97.855469 261.304688 90.296875 259.082031 84.371094 L 255.035156 73.597656 L 245.722656 77.828125 C 216.78125 90.976562 203.820312 97.535156 200.601562 100.664062 C 198.613281 102.59375 195.71875 104.921875 194.167969 105.835938 C 191.648438 107.320312 191.585938 107.785156 193.570312 110.179688 C 195.574219 112.59375 198.03125 112.789062 218.359375 112.160156 C 230.769531 111.773438 238.894531 111.941406 236.414062 112.527344 C 233.933594 113.117188 229.03125 113.675781 225.515625 113.773438 C 219.253906 113.949219 219.128906 114.054688 219.128906 119.21875 C 219.128906 124.367188 218.992188 124.484375 213.070312 124.484375 C 205.800781 124.484375 205.058594 125.894531 207.136719 135.78125 C 208.003906 139.910156 208.882812 144.304688 209.082031 145.546875 C 209.285156 146.785156 210.402344 152.371094 211.5625 157.957031 C 213.589844 167.726562 213.839844 168.113281 218.109375 168.113281 L 222.550781 168.113281 L 221.519531 158.023438 C 220.949219 152.472656 219.808594 147.117188 218.984375 146.121094 C 217.976562 144.90625 218.003906 143.988281 219.058594 143.332031 C 222.492188 141.210938 222.46875 141.039062 232.1875 240.753906 C 233.625 255.46875 235.175781 268.121094 235.636719 268.871094 C 237.078125 271.207031 244.683594 272.183594 267.203125 272.917969 C 279.175781 273.3125 289.261719 273.925781 289.617188 274.28125 C 292.699219 277.363281 293.070312 271.578125 292.054688 236.285156 Z M 210.304688 270.046875 C 210.824219 269.238281 211.007812 267.464844 210.714844 266.109375 C 210.421875 264.753906 209.152344 252.472656 207.894531 238.820312 C 206.507812 223.734375 202.957031 201.039062 198.84375 180.960938 C 195.125 162.789062 192.078125 147.25 192.078125 146.433594 C 192.078125 141.96875 189.074219 149.363281 186.324219 160.59375 C 171.265625 222.085938 170.859375 225.226562 173.519531 259.4375 L 174.480469 271.777344 L 182.152344 272.359375 C 192.78125 273.167969 209.167969 271.824219 210.304688 270.046875 Z M 37.285156 265.8125 C 37.285156 264.9375 36.609375 264.636719 35.78125 265.148438 C 34.957031 265.660156 34.277344 266.375 34.277344 266.742188 C 34.277344 267.105469 34.957031 267.40625 35.78125 267.40625 C 36.609375 267.40625 37.285156 266.6875 37.285156 265.8125 Z M 151.542969 254.992188 C 152.453125 251.476562 153.691406 246.570312 154.296875 244.085938 C 155.628906 238.585938 154.085938 181.488281 152.6875 184.664062 C 152.140625 185.902344 149.550781 196.058594 146.929688 207.230469 C 144.308594 218.398438 140.28125 235.15625 137.980469 244.464844 L 133.800781 261.390625 L 149.886719 261.390625 L 151.542969 254.996094 Z M 228.703125 230.792969 C 228.175781 226.933594 227.085938 223.777344 226.285156 223.777344 C 225.480469 223.777344 225.195312 224.746094 225.648438 225.925781 C 226.101562 227.109375 226.933594 230.527344 227.492188 233.519531 C 228.941406 241.242188 229.855469 239.1875 228.703125 230.792969 Z M 16.246094 212.480469 C 16.246094 206.074219 16.082031 205.800781 13.242188 207.578125 C 9.886719 209.675781 9.472656 211.09375 11.800781 212.53125 C 12.660156 213.0625 12.953125 214.796875 12.449219 216.382812 C 11.816406 218.382812 12.253906 219.261719 13.890625 219.261719 C 15.683594 219.261719 16.246094 217.636719 16.246094 212.480469 Z M 226.652344 210.523438 C 226.652344 202.0625 223.6875 194.648438 221.273438 197.066406 C 219.789062 198.550781 223.53125 219.265625 225.285156 219.265625 C 226.035156 219.265625 226.652344 215.332031 226.652344 210.523438 Z M 29.855469 208.953125 C 29.105469 207.589844 27.449219 205.121094 26.175781 203.46875 C 24 200.640625 23.855469 200.941406 23.8125 208.390625 L 23.765625 216.324219 L 27.492188 213.878906 C 30.296875 212.039062 30.882812 210.820312 29.855469 208.953125 Z M 15.433594 199.601562 C 14.957031 198.832031 13.128906 198.203125 11.367188 198.203125 C 8.238281 198.203125 8.230469 198.253906 11.0625 200.324219 C 14.070312 202.527344 16.949219 202.050781 15.433594 199.601562 Z M 14.152344 191.085938 C 13.652344 190.585938 13.296875 191.476562 13.363281 193.0625 C 13.433594 194.8125 13.792969 195.171875 14.269531 193.96875 C 14.703125 192.882812 14.652344 191.585938 14.152344 191.085938 Z M 224.335938 184.105469 C 223.089844 171.671875 222.835938 171.121094 218.273438 171.121094 C 214.910156 171.121094 214.433594 171.640625 215.148438 174.507812 C 215.609375 176.367188 216.453125 180.9375 217.019531 184.664062 C 218.21875 192.554688 219.992188 195.347656 223.0625 194.167969 C 224.804688 193.5 225.070312 191.421875 224.335938 184.105469 Z M 14.746094 176.386719 C 14.746094 174.046875 13.894531 172.625 12.492188 172.625 C 9.789062 172.625 9.535156 175.832031 12.042969 178.34375 C 14.53125 180.832031 14.746094 180.675781 14.746094 176.386719 Z M 178.421875 142.011719 C 176.738281 139.984375 171.292969 142.402344 170.269531 145.628906 C 169.757812 147.242188 169.832031 154.148438 170.4375 160.972656 L 171.53125 173.378906 L 175.507812 158.335938 C 177.695312 150.058594 179.007812 142.714844 178.421875 142.011719 Z M 185.324219 127.492188 C 187.59375 126.519531 186.667969 126.199219 181.566406 126.199219 C 177.847656 126.199219 173.453125 126.78125 171.800781 127.492188 C 169.53125 128.46875 170.457031 128.785156 175.558594 128.785156 C 179.277344 128.785156 183.671875 128.203125 185.324219 127.492188 Z M 217.636719 121.476562 C 217.636719 120.648438 216.824219 119.972656 215.835938 119.972656 C 214.429688 119.972656 214.429688 119.570312 215.835938 118.164062 C 219.171875 114.824219 217.679688 113.953125 208.621094 113.953125 C 200.089844 113.953125 196.699219 115.941406 201.859375 117.921875 C 203.097656 118.398438 204.113281 119.730469 204.113281 120.882812 C 204.113281 122.363281 206.097656 122.980469 210.875 122.980469 C 214.59375 122.980469 217.636719 122.304688 217.636719 121.476562 Z M 85.257812 102.488281 C 85.601562 102.175781 81.710938 101.917969 76.613281 101.917969 C 67.90625 101.917969 67.347656 102.128906 67.347656 105.429688 C 67.347656 107.359375 67.769531 109.359375 68.28125 109.875 C 69.042969 110.632812 82.972656 104.574219 85.257812 102.488281 Z M 85.257812 102.488281 " fill-opacity="1" fill-rule="nonzero"/></g></g></g></g></svg>